<?xml version="1.0" encoding="UTF-8"?>
<svg xmlns="http://www.w3.org/2000/svg" xmlns:xlink="http://www.w3.org/1999/xlink" width="35px" height="35px" viewBox="0 0 35 35" version="1.1">
<g id="surface1">
<path style=" stroke:none;fill-rule:nonzero;fill:rgb(100%,100%,100%);fill-opacity:1;" d="M 2.1875 6.5625 C 2.1875 5.355469 3.167969 4.375 4.375 4.375 L 30.625 4.375 C 31.835938 4.375 32.8125 5.355469 32.8125 6.5625 C 32.8125 7.773438 31.835938 8.75 30.625 8.75 L 4.375 8.75 C 3.167969 8.75 2.1875 7.773438 2.1875 6.5625 Z M 2.1875 17.5 C 2.1875 16.289062 3.167969 15.3125 4.375 15.3125 L 30.625 15.3125 C 31.835938 15.3125 32.8125 16.289062 32.8125 17.5 C 32.8125 18.710938 31.835938 19.6875 30.625 19.6875 L 4.375 19.6875 C 3.167969 19.6875 2.1875 18.710938 2.1875 17.5 Z M 30.625 30.625 L 4.375 30.625 C 3.167969 30.625 2.1875 29.648438 2.1875 28.4375 C 2.1875 27.226562 3.167969 26.25 4.375 26.25 L 30.625 26.25 C 31.835938 26.25 32.8125 27.226562 32.8125 28.4375 C 32.8125 29.648438 31.835938 30.625 30.625 30.625 Z M 30.625 30.625 "/>
</g>
</svg>
